<?xml version="1.0" encoding="utf-8"?>
<svg version="1.1" xmlns:xlink="http://www.w3.org/1999/xlink" width="259px" height="170px" xmlns="http://www.w3.org/2000/svg">
  <defs>
    <mask fill="white" id="clip336">
      <path d="M 251 0  L 31.3118811881188 0  L 2 31.9661016949153  L 2 163.305084745763  L 251 163.305084745763  L 251 0  Z " fill-rule="evenodd" />
    </mask>
    <filter x="201px" y="107px" width="259px" height="170px" filterUnits="userSpaceOnUse" id="filter337">
      <feOffset dx="3" dy="3" in="SourceAlpha" result="shadowOffsetInner" />
      <feGaussianBlur stdDeviation="1.5" in="shadowOffsetInner" result="shadowGaussian" />
      <feComposite in2="shadowGaussian" operator="atop" in="SourceAlpha" result="shadowComposite" />
      <feColorMatrix type="matrix" values="0 0 0 0 0  0 0 0 0 0  0 0 0 0 0  0 0 0 0.349019607843137 0  " in="shadowComposite" />
    </filter>
    <g id="widget338">
      <path d="M 251 0  L 31.3118811881188 0  L 2 31.9661016949153  L 2 163.305084745763  L 251 163.305084745763  L 251 0  Z " fill-rule="nonzero" fill="#ffffff" stroke="none" transform="matrix(1 0 0 1 201 107 )" />
      <path d="M 251 0  L 31.3118811881188 0  L 2 31.9661016949153  L 2 163.305084745763  L 251 163.305084745763  L 251 0  Z " stroke-width="2" stroke="#555555" fill="none" transform="matrix(1 0 0 1 201 107 )" mask="url(#clip336)" />
    </g>
  </defs>
  <g transform="matrix(1 0 0 1 -201 -107 )">
    <use xlink:href="#widget338" filter="url(#filter337)" />
    <use xlink:href="#widget338" />
  </g>
</svg>